<svg width="248" height="35" viewBox="0 0 248 35" fill="none" xmlns="http://www.w3.org/2000/svg">
<g clip-path="url(#clip0_3220_2792)">
<path d="M23.0595 22.2233C21.6074 23.7097 19.1415 25.1928 15.2885 25.1928C10.7403 25.1928 7.57919 23.0285 7.57919 16.5292C7.57919 10.523 10.7403 7.43272 15.7988 7.43272C19.5251 7.43272 21.7991 8.85205 23.0629 10.0902L23.0595 22.2233ZM23.6897 31.88H30.6387V0.312601H24.8164L23.9465 3.40962C21.9875 1.61449 19.0147 0.00390625 14.5282 0.00390625C6.44214 0.00390625 0 5.26515 0 16.405C0 28.3535 6.12705 32.1753 13.3946 32.1753C17.095 32.2362 20.6743 30.8835 23.3746 28.4039L23.6897 31.88Z" fill="#0031E2"/>
<path d="M58.757 0.308594C54.017 14.9817 49.9106 25.38 49.9106 25.38C49.9106 25.38 45.8008 14.9783 41.0642 0.308594H33.1699C38.4134 17.0218 44.8555 31.876 44.8555 31.876H54.9656C54.9656 31.876 61.4729 17.0218 66.6546 0.308594H58.757Z" fill="#0031E2"/>
<path d="M90.1275 24.7527H76.2397V0.31543H68.9688V31.8762H90.1275V24.7527Z" fill="#0031E2"/>
<path d="M115.825 22.2223C114.369 23.7087 111.907 25.1918 108.054 25.1918C103.502 25.1918 100.344 23.0276 100.344 16.5282C100.344 10.5221 103.502 7.43174 108.564 7.43174C112.287 7.43174 114.561 8.85107 115.828 10.0892L115.825 22.2223ZM116.465 31.8791H123.414V0.311624H117.592L116.708 3.40864C114.749 1.61351 111.776 0.00292969 107.293 0.00292969C99.2073 0.00292969 92.7617 5.26417 92.7617 16.404C92.7617 28.3526 98.8922 32.1743 106.156 32.1743C109.858 32.2353 113.438 30.8827 116.14 28.4029L116.465 31.8791Z" fill="#0031E2"/>
</g>
<defs>
<clipPath id="clip0_3220_2792">
<rect width="248" height="35" fill="white"/>
</clipPath>
</defs>
</svg>
